<?xml version="1.0" encoding="UTF-8"?>
<svg width="919px" height="1581px" viewBox="0 0 919 1581" version="1.1" xmlns="http://www.w3.org/2000/svg" xmlns:xlink="http://www.w3.org/1999/xlink">
    <!-- Generator: Sketch 54.1 (76490) - https://sketchapp.com -->
    <title>CLYDEfavicon</title>
    <desc>Created with Sketch.</desc>
    <defs>
        <path d="M67.023,1509.141 C66.015,1513.299 62.991,1515.567 60.03,1515.567 C57.195,1515.567 54.36,1513.488 53.226,1508.889 C51.588,1502.211 48.312,1482.744 47.619,1477.452 C47.493,1476.633 47.304,1476.318 47.115,1476.318 C46.926,1476.318 46.737,1476.759 46.611,1477.452 C45.792,1483.185 42.768,1501.077 40.752,1508.826 C39.618,1513.362 36.531,1515.567 33.507,1515.567 C30.42,1515.567 27.459,1513.362 26.514,1508.889 C19.773,1477.011 18.891,1472.223 18.891,1471.089 C18.891,1468.884 20.844,1467.75 22.734,1467.75 C24.498,1467.75 26.199,1468.695 26.514,1470.522 C32.814,1506.747 32.94,1507.125 33.822,1507.125 C34.326,1507.125 34.767,1506.432 34.956,1505.487 C36.153,1500.258 39.555,1481.169 41.193,1472.79 C41.823,1469.388 44.406,1467.876 46.989,1467.876 C49.761,1467.876 52.533,1469.577 53.1,1472.538 C54.486,1479.72 57.636,1497.864 58.959,1505.172 C59.148,1506.243 59.463,1506.621 59.778,1506.621 C60.66,1506.621 61.038,1506.621 68.157,1470.459 C68.535,1468.632 70.11,1467.75 71.685,1467.75 C73.638,1467.75 75.654,1469.01 75.654,1471.026 C75.654,1472.223 72.315,1487.217 67.023,1509.141 Z M90.648,1512.102 L90.648,1512.165 C90.648,1514.37 88.758,1515.504 86.868,1515.504 C84.978,1515.504 83.088,1514.37 83.088,1512.165 L83.088,1512.102 C83.214,1504.542 83.403,1496.1 83.403,1487.973 C83.403,1481.988 83.277,1476.255 83.088,1471.152 C82.962,1468.506 85.797,1467.813 86.931,1467.813 C88.758,1467.813 90.648,1468.821 90.648,1470.9 L90.648,1471.026 C90.522,1476.255 90.459,1482.177 90.459,1488.288 C90.459,1496.163 90.522,1504.353 90.648,1512.102 Z M101.736,1512.543 L101.736,1512.48 C101.862,1505.991 101.925,1498.368 101.925,1491.123 C101.925,1484.823 101.862,1478.838 101.799,1474.113 L101.799,1473.861 C101.799,1469.451 104.256,1467.687 107.028,1467.687 C109.359,1467.687 111.879,1469.01 113.202,1471.089 C117.171,1477.389 127.692,1497.045 132.48,1504.227 C132.858,1504.794 133.173,1505.109 133.362,1505.109 C133.551,1505.109 133.803,1504.92 133.803,1502.463 C133.803,1496.541 133.614,1476.885 133.425,1471.089 C133.362,1469.01 135.063,1467.687 137.079,1467.687 C138.906,1467.687 140.733,1468.821 140.733,1470.963 L140.733,1471.089 C140.607,1475.499 140.544,1481.61 140.544,1487.91 C140.544,1495.911 140.607,1504.164 140.733,1509.645 L140.733,1509.771 C140.733,1513.551 137.961,1515.756 135,1515.756 C132.984,1515.756 130.968,1514.748 129.582,1512.606 C125.172,1505.613 113.391,1484.067 109.989,1478.334 C109.737,1477.956 109.296,1477.137 108.981,1477.137 C108.603,1477.137 108.603,1477.767 108.603,1480.665 C108.603,1487.217 108.792,1505.802 108.981,1512.48 L108.981,1512.606 C108.981,1514.622 107.217,1515.567 105.39,1515.567 C103.563,1515.567 101.736,1514.559 101.736,1512.543 Z M193.716,1491.627 C193.716,1516.134 172.926,1516.197 166.374,1516.197 C161.334,1516.197 152.388,1516.134 151.758,1507.314 C151.569,1504.227 151.443,1499.124 151.443,1493.832 C151.443,1486.902 151.632,1479.594 151.821,1476.192 C152.325,1467.561 158.562,1467.309 166.374,1467.309 C168.327,1467.309 170.217,1467.372 171.162,1467.435 C185.715,1468.38 193.716,1478.523 193.716,1491.627 Z M170.532,1474.176 C170.532,1474.176 167.823,1474.113 165.492,1474.113 C162.468,1474.113 159.066,1474.176 158.877,1477.326 C158.688,1479.972 158.499,1487.217 158.499,1494.021 C158.499,1498.998 158.625,1503.66 158.877,1506.054 C159.192,1508.952 161.145,1509.456 166.374,1509.456 C172.989,1509.456 186.282,1509.456 186.282,1491.627 C186.282,1481.484 180.171,1474.176 170.532,1474.176 Z M230.76,1502.463 C230.76,1509.204 225.027,1516.134 214.821,1516.134 C204.552,1516.134 199.26,1510.275 199.26,1507.188 C199.26,1505.109 201.087,1503.597 202.914,1503.597 C203.922,1503.597 204.93,1504.101 205.686,1505.172 C207.324,1507.503 210.411,1509.393 214.884,1509.393 C221.814,1509.393 223.326,1504.668 223.326,1502.652 C223.326,1500.132 221.814,1497.423 218.538,1495.596 C215.766,1494.021 212.364,1492.131 209.025,1490.619 C203.481,1488.099 200.961,1483.626 200.961,1479.279 C200.961,1473.168 205.875,1467.309 214.569,1467.309 C223.263,1467.309 228.24,1471.467 228.24,1474.428 C228.24,1476.318 226.665,1478.082 224.712,1478.082 C223.767,1478.082 222.696,1477.641 221.751,1476.57 C220.554,1475.247 218.412,1473.672 214.506,1473.672 C210.474,1473.672 208.017,1476.192 208.017,1479.027 C208.017,1480.98 209.214,1483.122 211.986,1484.571 C214.569,1485.957 218.916,1487.973 221.814,1489.548 C228.114,1493.013 230.76,1497.801 230.76,1502.463 Z M257.157,1516.134 C247.707,1516.134 238.32,1509.582 238.32,1496.415 L238.32,1496.1 C238.383,1491.69 238.383,1487.028 238.383,1482.429 C238.383,1478.586 238.383,1474.806 238.257,1471.152 C238.194,1469.325 239.391,1467.813 241.911,1467.813 C243.675,1467.813 245.502,1468.884 245.502,1471.026 L245.502,1471.152 C245.439,1473.609 245.376,1476.066 245.376,1478.523 C245.376,1483.689 245.502,1488.855 245.502,1493.958 L245.502,1496.541 C245.502,1504.983 251.172,1509.078 256.905,1509.078 C262.827,1509.078 268.938,1504.605 268.938,1496.037 C268.938,1490.556 269.064,1484.949 269.064,1479.405 C269.064,1476.633 269.001,1473.861 268.938,1471.152 C268.875,1468.317 271.332,1467.813 272.592,1467.813 C274.419,1467.813 276.246,1468.884 276.246,1471.026 L276.246,1471.152 C276.12,1476.381 276.057,1480.665 276.057,1484.76 C276.057,1488.351 276.12,1491.879 276.183,1495.848 C276.498,1509.582 266.418,1516.134 257.157,1516.134 Z M310.14,1507.755 C306.108,1500.762 302.391,1493.517 299.367,1493.454 C298.548,1493.454 297.099,1493.391 295.902,1493.391 C294.705,1493.391 293.823,1493.454 293.823,1494.588 C293.823,1499.313 294.012,1509.645 294.012,1511.913 C293.949,1514.244 292.122,1515.378 290.295,1515.378 C288.594,1515.378 286.893,1514.307 286.893,1512.228 L286.893,1512.102 C287.082,1506.243 287.082,1498.746 287.082,1491.816 C287.082,1478.208 287.082,1477.956 287.145,1475.373 C287.334,1467.309 294.516,1467.309 299.808,1467.309 C301.257,1467.309 302.706,1467.372 303.651,1467.435 C313.857,1468.128 318.078,1474.113 318.078,1480.035 C318.078,1485.453 314.55,1490.745 308.88,1491.879 C308.439,1492.005 308.25,1492.068 308.25,1492.257 C308.25,1492.509 308.691,1492.824 309.132,1493.328 C312.219,1496.73 313.983,1500.573 316.188,1504.101 C317.763,1506.684 319.212,1507.881 321.354,1508.133 C323.496,1508.385 324.63,1510.086 324.63,1511.85 C324.63,1513.74 323.37,1515.567 320.598,1515.567 C319.59,1515.567 314.424,1515.378 310.14,1507.755 Z M303.462,1487.595 C308.124,1487.154 310.896,1483.626 310.896,1480.224 C310.896,1477.074 308.502,1473.987 303.021,1473.672 C302.202,1473.609 301.068,1473.609 299.871,1473.609 C296.469,1473.609 294.201,1473.798 294.012,1476.759 C293.886,1478.271 293.949,1482.744 293.886,1486.398 C293.886,1487.658 294.705,1487.721 299.115,1487.721 C300.69,1487.721 302.328,1487.658 303.462,1487.595 Z M330.552,1512.228 L330.552,1512.165 C330.678,1504.668 330.615,1481.988 330.804,1475.373 C330.93,1470.333 334.206,1467.687 339.309,1467.435 C340.443,1467.372 343.971,1467.309 347.373,1467.309 C350.838,1467.309 354.24,1467.372 355.185,1467.435 C357.579,1467.561 358.713,1469.136 358.713,1470.774 C358.713,1472.475 357.39,1474.176 354.996,1474.176 C354.996,1474.176 349.515,1474.113 345.357,1474.113 C339.309,1474.113 337.86,1474.239 337.671,1476.948 C337.545,1478.46 337.608,1481.673 337.545,1485.327 C337.545,1486.587 337.608,1486.587 344.979,1486.587 C347.688,1486.587 350.46,1486.587 351.594,1486.524 C355.122,1486.335 355.122,1489.674 355.122,1489.863 C355.122,1491.69 353.988,1493.454 351.783,1493.454 L351.468,1493.454 C349.893,1493.328 347.688,1493.265 345.42,1493.265 C338.427,1493.265 337.482,1493.265 337.482,1494.651 C337.482,1498.431 337.545,1506.054 337.545,1510.086 L337.545,1512.354 C337.482,1514.37 335.655,1515.504 333.891,1515.504 C332.19,1515.504 330.552,1514.433 330.552,1512.228 Z M373.644,1512.102 L373.644,1512.165 C373.644,1514.37 371.754,1515.504 369.864,1515.504 C367.974,1515.504 366.084,1514.37 366.084,1512.165 L366.084,1512.102 C366.21,1504.542 366.399,1496.1 366.399,1487.973 C366.399,1481.988 366.273,1476.255 366.084,1471.152 C365.958,1468.506 368.793,1467.813 369.927,1467.813 C371.754,1467.813 373.644,1468.821 373.644,1470.9 L373.644,1471.026 C373.518,1476.255 373.455,1482.177 373.455,1488.288 C373.455,1496.163 373.518,1504.353 373.644,1512.102 Z M384.732,1512.543 L384.732,1512.48 C384.858,1505.991 384.921,1498.368 384.921,1491.123 C384.921,1484.823 384.858,1478.838 384.795,1474.113 L384.795,1473.861 C384.795,1469.451 387.252,1467.687 390.024,1467.687 C392.355,1467.687 394.875,1469.01 396.198,1471.089 C400.167,1477.389 410.688,1497.045 415.476,1504.227 C415.854,1504.794 416.169,1505.109 416.358,1505.109 C416.547,1505.109 416.799,1504.92 416.799,1502.463 C416.799,1496.541 416.61,1476.885 416.421,1471.089 C416.358,1469.01 418.059,1467.687 420.075,1467.687 C421.902,1467.687 423.729,1468.821 423.729,1470.963 L423.729,1471.089 C423.603,1475.499 423.54,1481.61 423.54,1487.91 C423.54,1495.911 423.603,1504.164 423.729,1509.645 L423.729,1509.771 C423.729,1513.551 420.957,1515.756 417.996,1515.756 C415.98,1515.756 413.964,1514.748 412.578,1512.606 C408.168,1505.613 396.387,1484.067 392.985,1478.334 C392.733,1477.956 392.292,1477.137 391.977,1477.137 C391.599,1477.137 391.599,1477.767 391.599,1480.665 C391.599,1487.217 391.788,1505.802 391.977,1512.48 L391.977,1512.606 C391.977,1514.622 390.213,1515.567 388.386,1515.567 C386.559,1515.567 384.732,1514.559 384.732,1512.543 Z M467.073,1497.234 C467.073,1497.234 467.01,1497.234 466.947,1497.234 C466.317,1497.234 463.167,1497.297 459.702,1497.423 L459.576,1497.423 C457.56,1497.423 456.426,1495.596 456.426,1493.769 C456.426,1490.43 459.135,1490.43 461.214,1490.43 C464.301,1490.43 467.829,1490.556 469.908,1490.556 C475.326,1490.556 477.342,1493.328 477.342,1497.234 C477.342,1504.416 470.916,1516.197 455.922,1516.197 C443.259,1516.197 432.36,1506.747 432.36,1492.194 C432.36,1479.405 441.369,1467.246 456.741,1467.246 C466.758,1467.246 473.562,1473.042 473.562,1476.444 C473.562,1478.586 471.735,1480.35 469.719,1480.35 C468.585,1480.35 467.451,1479.846 466.506,1478.649 C464.049,1475.625 460.08,1474.176 456.111,1474.176 C445.086,1474.176 439.731,1483.815 439.731,1491.879 C439.731,1500.258 445.149,1508.889 455.922,1508.889 C466.317,1508.889 469.152,1500.825 469.152,1498.998 C469.152,1497.801 468.207,1497.234 467.073,1497.234 Z M548.343,1511.283 C548.343,1512.354 547.839,1515.315 541.539,1515.315 C538.137,1515.315 534.672,1513.929 530.766,1509.96 C530.64,1509.834 530.577,1509.834 530.514,1509.834 C530.325,1509.834 530.199,1509.897 530.073,1510.023 C529.002,1510.968 523.269,1515.945 515.457,1515.945 C506.952,1515.945 501.156,1509.582 501.156,1502.463 C501.156,1496.415 504.558,1492.572 510.795,1488.288 C510.921,1488.162 511.047,1488.036 511.047,1487.91 C511.047,1487.847 511.047,1487.784 510.921,1487.658 C507.645,1483.941 506.196,1480.728 506.196,1477.767 C506.196,1472.979 510.228,1467.372 517.284,1467.372 C523.521,1467.372 527.868,1472.034 527.868,1477.515 C527.868,1481.925 525.663,1484.697 520.497,1488.477 C520.371,1488.54 520.308,1488.666 520.308,1488.792 C520.308,1488.855 520.371,1488.981 520.497,1489.107 C523.458,1492.257 526.86,1495.974 530.01,1499.502 C530.199,1499.691 530.262,1499.754 530.388,1499.754 C530.64,1499.754 534.609,1494.273 536.814,1486.524 C537.255,1485.012 538.515,1484.382 539.775,1484.382 C541.602,1484.382 543.555,1485.642 543.555,1487.721 C543.555,1488.792 541.035,1496.919 535.176,1504.479 C535.113,1504.605 535.05,1504.731 535.05,1504.794 C535.05,1504.92 535.113,1505.046 535.239,1505.172 C537.633,1507.44 539.712,1508.511 541.665,1508.511 C542.484,1508.511 543.24,1508.322 543.996,1508.007 C544.437,1507.818 544.815,1507.755 545.193,1507.755 C547.02,1507.755 548.343,1509.519 548.343,1511.283 Z M516.465,1484.193 C519.615,1481.736 521.316,1480.161 521.316,1477.515 C521.316,1473.357 517.347,1473.357 517.095,1473.357 C513.315,1473.357 512.748,1477.452 512.748,1478.334 C512.748,1480.602 514.197,1482.429 515.835,1484.256 C515.898,1484.319 515.961,1484.382 516.024,1484.382 C516.213,1484.382 516.402,1484.256 516.465,1484.193 Z M526.167,1504.668 C526.167,1504.668 515.961,1492.383 515.016,1492.383 C514.764,1492.383 507.771,1496.73 507.771,1502.337 C507.771,1506.243 510.795,1509.456 515.583,1509.456 C521.127,1509.456 526.167,1504.92 526.167,1504.668 Z M601.2,1502.463 C601.2,1509.204 595.467,1516.134 585.261,1516.134 C574.992,1516.134 569.7,1510.275 569.7,1507.188 C569.7,1505.109 571.527,1503.597 573.354,1503.597 C574.362,1503.597 575.37,1504.101 576.126,1505.172 C577.764,1507.503 580.851,1509.393 585.324,1509.393 C592.254,1509.393 593.766,1504.668 593.766,1502.652 C593.766,1500.132 592.254,1497.423 588.978,1495.596 C586.206,1494.021 582.804,1492.131 579.465,1490.619 C573.921,1488.099 571.401,1483.626 571.401,1479.279 C571.401,1473.168 576.315,1467.309 585.009,1467.309 C593.703,1467.309 598.68,1471.467 598.68,1474.428 C598.68,1476.318 597.105,1478.082 595.152,1478.082 C594.207,1478.082 593.136,1477.641 592.191,1476.57 C590.994,1475.247 588.852,1473.672 584.946,1473.672 C580.914,1473.672 578.457,1476.192 578.457,1479.027 C578.457,1480.98 579.654,1483.122 582.426,1484.571 C585.009,1485.957 589.356,1487.973 592.254,1489.548 C598.554,1493.013 601.2,1497.801 601.2,1502.463 Z M627.597,1516.134 C618.147,1516.134 608.76,1509.582 608.76,1496.415 L608.76,1496.1 C608.823,1491.69 608.823,1487.028 608.823,1482.429 C608.823,1478.586 608.823,1474.806 608.697,1471.152 C608.634,1469.325 609.831,1467.813 612.351,1467.813 C614.115,1467.813 615.942,1468.884 615.942,1471.026 L615.942,1471.152 C615.879,1473.609 615.816,1476.066 615.816,1478.523 C615.816,1483.689 615.942,1488.855 615.942,1493.958 L615.942,1496.541 C615.942,1504.983 621.612,1509.078 627.345,1509.078 C633.267,1509.078 639.378,1504.605 639.378,1496.037 C639.378,1490.556 639.504,1484.949 639.504,1479.405 C639.504,1476.633 639.441,1473.861 639.378,1471.152 C639.315,1468.317 641.772,1467.813 643.032,1467.813 C644.859,1467.813 646.686,1468.884 646.686,1471.026 L646.686,1471.152 C646.56,1476.381 646.497,1480.665 646.497,1484.76 C646.497,1488.351 646.56,1491.879 646.623,1495.848 C646.938,1509.582 636.858,1516.134 627.597,1516.134 Z M664.578,1512.039 C664.515,1514.433 662.751,1515.504 660.924,1515.504 C659.16,1515.504 657.333,1514.37 657.333,1512.291 L657.333,1512.102 C657.585,1507.188 657.648,1501.644 657.648,1496.289 C657.648,1489.8 657.522,1483.626 657.522,1479.216 C657.522,1471.467 657.585,1467.309 669.933,1467.309 C671.256,1467.309 672.516,1467.372 673.461,1467.435 C683.415,1468.065 688.014,1474.806 688.014,1481.61 C688.014,1488.603 683.163,1495.722 674.343,1496.604 C672.831,1496.793 671.382,1496.919 669.807,1496.919 C668.358,1496.919 666.846,1496.793 665.208,1496.415 C665.019,1496.352 664.893,1496.352 664.767,1496.352 C664.452,1496.352 664.389,1496.541 664.389,1497.045 C664.389,1500.951 664.578,1505.424 664.578,1509.582 L664.578,1512.039 Z M672.831,1473.987 C672.831,1473.987 671.319,1473.924 669.807,1473.924 C664.767,1473.924 664.2,1474.617 664.2,1480.476 C664.2,1482.681 664.263,1485.264 664.263,1487.469 L664.263,1488.54 C664.263,1489.863 665.523,1490.304 669.429,1490.304 C670.626,1490.304 671.949,1490.241 673.272,1490.115 C678.06,1489.674 680.958,1485.327 680.958,1481.295 C680.958,1477.515 678.501,1473.987 672.831,1473.987 Z M755.298,1505.991 C755.298,1509.267 747.801,1516.134 736.209,1516.134 C720.522,1516.134 712.08,1504.479 712.08,1492.194 C712.08,1479.405 721.089,1467.246 736.461,1467.246 C746.478,1467.246 753.282,1473.042 753.282,1476.444 C753.282,1478.586 751.455,1480.35 749.439,1480.35 C748.305,1480.35 747.171,1479.846 746.226,1478.649 C743.769,1475.625 739.8,1474.176 735.831,1474.176 C725.184,1474.176 719.514,1483.248 719.514,1491.753 C719.514,1497.045 722.601,1508.889 735.894,1508.889 C740.682,1508.889 745.407,1507.062 747.99,1503.597 C748.872,1502.4 749.943,1501.959 751.077,1501.959 C753.219,1501.959 755.298,1503.849 755.298,1505.991 Z M763.047,1471.53 C763.047,1469.073 764.811,1467.813 766.575,1467.813 C768.339,1467.813 770.166,1469.073 770.166,1471.656 L770.166,1471.908 C769.977,1475.94 769.788,1489.233 769.788,1497.99 C769.788,1501.581 769.851,1504.416 769.914,1505.487 C770.166,1508.511 771.552,1508.511 780.12,1508.511 C783.774,1508.511 787.806,1508.448 789.003,1508.385 L789.318,1508.385 C791.46,1508.385 792.72,1510.023 792.72,1511.724 C792.72,1513.425 791.46,1515.189 788.751,1515.315 C787.932,1515.378 784.215,1515.441 780.498,1515.441 C776.844,1515.441 773.127,1515.378 772.308,1515.315 C766.512,1514.874 763.047,1512.795 762.858,1507.251 C762.795,1505.928 762.795,1503.912 762.795,1501.581 C762.795,1492.95 763.047,1479.153 763.047,1472.916 L763.047,1471.53 Z M816.597,1516.134 C807.147,1516.134 797.76,1509.582 797.76,1496.415 L797.76,1496.1 C797.823,1491.69 797.823,1487.028 797.823,1482.429 C797.823,1478.586 797.823,1474.806 797.697,1471.152 C797.634,1469.325 798.831,1467.813 801.351,1467.813 C803.115,1467.813 804.942,1468.884 804.942,1471.026 L804.942,1471.152 C804.879,1473.609 804.816,1476.066 804.816,1478.523 C804.816,1483.689 804.942,1488.855 804.942,1493.958 L804.942,1496.541 C804.942,1504.983 810.612,1509.078 816.345,1509.078 C822.267,1509.078 828.378,1504.605 828.378,1496.037 C828.378,1490.556 828.504,1484.949 828.504,1479.405 C828.504,1476.633 828.441,1473.861 828.378,1471.152 C828.315,1468.317 830.772,1467.813 832.032,1467.813 C833.859,1467.813 835.686,1468.884 835.686,1471.026 L835.686,1471.152 C835.56,1476.381 835.497,1480.665 835.497,1484.76 C835.497,1488.351 835.56,1491.879 835.623,1495.848 C835.938,1509.582 825.858,1516.134 816.597,1516.134 Z M879.975,1501.455 C879.975,1508.196 875.061,1515.441 864.162,1516.071 C863.343,1516.134 861.705,1516.197 860.13,1516.197 C854.019,1516.197 846.774,1515.945 846.522,1508.07 C846.396,1505.424 846.396,1500.699 846.396,1495.596 C846.396,1487.91 846.459,1479.342 846.585,1475.31 C846.774,1467.435 853.767,1467.309 859.122,1467.309 C860.508,1467.309 861.831,1467.372 862.776,1467.435 C873.234,1468.128 877.14,1473.672 877.14,1478.964 C877.14,1483.752 873.99,1488.414 869.58,1489.044 C868.95,1489.17 868.572,1489.296 868.572,1489.422 C868.572,1489.485 868.824,1489.611 869.517,1489.674 C876.321,1490.178 879.975,1495.596 879.975,1501.455 Z M862.146,1473.861 C862.146,1473.861 860.508,1473.798 858.87,1473.798 C854.838,1473.798 853.578,1474.302 853.389,1476.696 C853.263,1478.208 853.326,1481.799 853.263,1485.453 C853.263,1486.776 854.145,1486.776 858.303,1486.776 C859.815,1486.776 861.453,1486.776 862.587,1486.713 C867.123,1486.461 870.021,1482.933 870.021,1479.594 C870.021,1476.633 867.69,1473.861 862.146,1473.861 Z M864.414,1509.645 C869.643,1509.33 872.73,1504.983 872.73,1500.762 C872.73,1497.045 870.21,1493.391 864.414,1492.95 C862.839,1492.824 861.201,1492.761 859.626,1492.761 C853.767,1492.761 853.2,1492.95 853.2,1494.21 C853.2,1502.085 853.2,1504.983 853.389,1506.684 C853.704,1509.015 854.334,1509.771 860.193,1509.771 C861.642,1509.771 863.217,1509.708 864.414,1509.645 Z" id="path-1"></path>
        <filter x="0.0%" y="0.0%" width="100.0%" height="100.0%" filterUnits="objectBoundingBox" id="filter-2">
            <feGaussianBlur stdDeviation="0" in="SourceGraphic"></feGaussianBlur>
        </filter>
        <filter x="0.0%" y="0.0%" width="100.0%" height="100.0%" filterUnits="objectBoundingBox" id="filter-3">
            <feGaussianBlur stdDeviation="0" in="SourceGraphic"></feGaussianBlur>
        </filter>
        <filter x="0.0%" y="0.0%" width="100.0%" height="100.0%" filterUnits="objectBoundingBox" id="filter-4">
            <feGaussianBlur stdDeviation="0" in="SourceGraphic"></feGaussianBlur>
        </filter>
        <filter x="0.0%" y="-0.0%" width="100.0%" height="100.0%" filterUnits="objectBoundingBox" id="filter-5">
            <feGaussianBlur stdDeviation="0" in="SourceGraphic"></feGaussianBlur>
        </filter>
        <filter x="0.0%" y="0.0%" width="100.0%" height="100.0%" filterUnits="objectBoundingBox" id="filter-6">
            <feGaussianBlur stdDeviation="0" in="SourceGraphic"></feGaussianBlur>
        </filter>
        <filter x="0.0%" y="0.0%" width="100.0%" height="100.0%" filterUnits="objectBoundingBox" id="filter-7">
            <feGaussianBlur stdDeviation="0" in="SourceGraphic"></feGaussianBlur>
        </filter>
        <filter x="0.0%" y="0.0%" width="100.0%" height="100.0%" filterUnits="objectBoundingBox" id="filter-8">
            <feGaussianBlur stdDeviation="0" in="SourceGraphic"></feGaussianBlur>
        </filter>
    </defs>
    <g id="CLYDEfavicon" stroke="none" stroke-width="1" fill="none" fill-rule="evenodd">
        <g id="Text" transform="translate(11.000000, 35.000000)" fill="#FFFFFF" fill-rule="nonzero">
            <g id="WINDSURFING&amp;SUPCLUB" filter="url(#filter-2)">
                <use xlink:href="#path-1"></use>
                <use xlink:href="#path-1"></use>
            </g>
            <path d="M229.264,1386.394 C229.264,1398.978 200.466,1425.356 155.938,1425.356 C95.68,1425.356 63.252,1380.586 63.252,1333.396 C63.252,1284.27 97.858,1237.564 156.906,1237.564 C195.384,1237.564 221.52,1259.828 221.52,1272.896 C221.52,1281.124 214.502,1287.9 206.758,1287.9 C202.402,1287.9 198.046,1285.964 194.416,1281.366 C184.978,1269.75 169.732,1264.184 154.486,1264.184 C113.588,1264.184 91.808,1299.032 91.808,1331.702 C91.808,1352.03 103.666,1397.526 154.728,1397.526 C173.12,1397.526 191.27,1390.508 201.192,1377.198 C204.58,1372.6 208.694,1370.906 213.05,1370.906 C221.278,1370.906 229.264,1378.166 229.264,1386.394 Z M259.03,1254.02 C259.03,1244.582 265.806,1239.742 272.582,1239.742 C279.358,1239.742 286.376,1244.582 286.376,1254.504 L286.376,1255.472 C285.65,1270.96 284.924,1322.022 284.924,1355.66 C284.924,1369.454 285.166,1380.344 285.408,1384.458 C286.376,1396.074 291.7,1396.074 324.612,1396.074 C338.648,1396.074 354.136,1395.832 358.734,1395.59 L359.944,1395.59 C368.172,1395.59 373.012,1401.882 373.012,1408.416 C373.012,1414.95 368.172,1421.726 357.766,1422.21 C354.62,1422.452 340.342,1422.694 326.064,1422.694 C312.028,1422.694 297.75,1422.452 294.604,1422.21 C272.34,1420.516 259.03,1412.53 258.304,1391.234 C258.062,1386.152 258.062,1378.408 258.062,1369.454 C258.062,1336.3 259.03,1283.302 259.03,1259.344 L259.03,1254.02 Z M411.732,1408.9 L411.732,1350.82 C411.732,1346.464 411.732,1346.464 409.312,1342.834 C391.646,1316.214 367.204,1280.156 355.588,1262.732 C353.652,1259.828 352.684,1256.924 352.684,1254.262 C352.684,1246.034 360.428,1239.5 367.93,1239.5 C372.286,1239.5 376.642,1241.678 379.546,1246.76 C389.71,1264.426 406.65,1289.594 423.59,1314.762 C424.558,1316.214 425.526,1316.698 426.494,1316.698 C427.704,1316.698 428.672,1316.214 429.398,1315.004 C444.402,1294.434 463.52,1264.668 473.2,1246.518 C475.862,1241.678 479.734,1239.742 484.09,1239.742 C491.834,1239.742 500.304,1246.76 500.304,1254.746 C500.304,1257.166 499.578,1259.344 498.126,1261.764 C487.236,1279.188 460.132,1319.602 444.402,1341.624 C441.74,1345.496 441.498,1346.464 441.498,1351.062 C441.498,1365.582 441.74,1390.024 441.74,1409.626 C441.74,1418.58 434.238,1423.178 426.978,1423.178 C419.234,1423.178 411.732,1418.58 411.732,1408.9 Z M690.032,1331.218 C690.032,1425.356 610.172,1425.598 585.004,1425.598 C565.644,1425.598 531.28,1425.356 528.86,1391.476 C528.134,1379.618 527.65,1360.016 527.65,1339.688 C527.65,1313.068 528.376,1284.996 529.102,1271.928 C531.038,1238.774 554.996,1237.806 585.004,1237.806 C592.506,1237.806 599.766,1238.048 603.396,1238.29 C659.298,1241.92 690.032,1280.882 690.032,1331.218 Z M600.976,1264.184 C600.976,1264.184 590.57,1263.942 581.616,1263.942 C570,1263.942 556.932,1264.184 556.206,1276.284 C555.48,1286.448 554.754,1314.278 554.754,1340.414 C554.754,1359.532 555.238,1377.44 556.206,1386.636 C557.416,1397.768 564.918,1399.704 585.004,1399.704 C610.414,1399.704 661.476,1399.704 661.476,1331.218 C661.476,1292.256 638.002,1264.184 600.976,1264.184 Z M819.502,1264.184 C819.502,1264.184 797.964,1263.942 781.508,1263.942 C757.308,1263.942 752.226,1264.426 751.5,1274.832 C751.016,1280.64 751.258,1292.498 751.016,1306.534 C751.016,1311.374 751.258,1311.374 781.024,1311.374 C792.156,1311.374 803.772,1311.374 808.128,1311.132 C821.68,1310.406 821.68,1323.232 821.68,1323.958 C821.68,1330.976 817.324,1337.752 808.854,1337.752 C808.612,1337.752 808.128,1337.752 807.644,1337.752 C801.594,1337.268 792.398,1337.026 783.202,1337.026 C753.194,1337.026 750.774,1337.268 750.774,1342.35 C750.774,1378.408 751.016,1383.974 751.5,1388.088 C752.71,1399.22 756.582,1399.704 790.704,1399.704 C804.982,1399.704 820.47,1399.462 825.068,1399.22 C825.552,1399.22 825.794,1399.22 826.278,1399.22 C834.748,1399.22 839.346,1405.27 839.346,1411.562 C839.346,1418.096 834.506,1424.63 824.1,1425.114 C820.954,1425.356 806.918,1425.598 792.882,1425.598 C779.088,1425.598 765.052,1425.356 761.906,1425.114 C739.642,1423.42 725.848,1415.434 724.88,1394.138 C724.396,1383.974 724.396,1366.066 724.396,1346.464 C724.396,1316.94 724.638,1284.028 725.122,1268.782 C725.606,1249.422 738.19,1239.258 757.792,1238.29 C762.148,1238.048 775.942,1237.806 789.494,1237.806 C803.288,1237.806 816.598,1238.048 820.228,1238.29 C829.424,1238.774 833.78,1244.824 833.78,1251.116 C833.78,1257.65 828.698,1264.184 819.502,1264.184 Z" id="CLYDE" filter="url(#filter-3)"></path>
        </g>
        <g id="011-windsurf-1" transform="translate(224.000000, 273.000000)" fill="#FFFFFF">
            <polygon id="Path" filter="url(#filter-4)" points="18.9920574 879 479.496029 879 479.992057 918.566348 18.9920574 918.566348"></polygon>
            <path d="M175.150989,569.944389 C175.101883,569.629543 175.053296,569.314747 175.005229,569 L481.66309,572.157749 C500.547697,574.693634 509.99,585.651991 509.99,605.032819 C509.99,624.413648 500.547697,635.591883 481.66309,638.567525 C298.124767,638.567525 202.163262,638.567525 193.778574,638.567525 C193.714509,638.400845 193.650583,638.234179 193.586796,638.067525 L141.743475,638.067525 C180.362053,754.115707 243.754798,838.826409 275.429654,879 C276.355701,880.174516 229.249979,879 210.222588,879 C169.066658,879 148.488692,879 148.488692,879 C-6.18333239,650.809376 -60.210007,322.657023 139.813702,22.9334949 C148.488692,8.59599988 180.105199,-11.3087457 210.887317,10.1887387 C241.669434,31.6862231 235.104867,63.5453676 223.598374,81.4466788 C104.843203,266.200912 93.93785,434.194494 123.004783,569.567525 L175.005229,569.567525 L175.150986,569.944368 Z" id="Combined-Shape---Windsurfer-&amp;-Boom" filter="url(#filter-5)"></path>
            <path d="M205.706074,673.278735 C232.790854,736.143393 273.06314,804.717148 326.522932,879 C346.384109,879.522007 349.174978,879.522007 363.740082,879 C452.755735,734.151965 431.301731,768.935459 479.696158,692.295126 C493.796487,669.324164 489.490516,673.278735 422.075187,673.278735 C351.216214,673.278735 279.093177,673.278735 205.706074,673.278735 Z" id="Path-3" filter="url(#filter-6)"></path>
            <path d="M171.639622,536.786903 C301.190233,536.786903 171.639622,536.786903 419.18617,536.786903 C526.580756,536.786903 526.580756,541.504191 529.035324,525.927017 C487.618618,422.204951 368.79366,195.727623 301.190233,97.8775791 C290.371522,85.3758522 280.141444,85.3758522 270.5,97.8775791 C186.424714,228.413845 153.471255,374.716953 171.639622,536.786903 Z" id="Path-4" filter="url(#filter-7)"></path>
        </g>
        <path d="M460,22.6822146 C464.440283,22.6822146 472.10915,23.7237729 481.493506,30.7627035 C578.780856,103.735094 914.175948,533.001045 916,863.289436 C914,1007.19249 832.822475,1238 460,1238 C76.676964,1238 5,1011.80984 5,863.289436 C5,533.758131 341.877528,103.892906 439.45516,30.7867765 C448.8708,23.7324854 455.558304,22.6822146 460,22.6822146 Z M460.126072,136.985745 C418.781104,136.985745 87,547.383911 87,855.062261 C87,981.53013 145.714696,1174.13522 459.716493,1174.13522 C765.116681,1174.13522 831.613829,977.598368 833.252143,855.062261 C831.613829,546.686495 501.471039,136.985745 460.126072,136.985745 Z" id="Paddle-New" fill="#FFFFFF" filter="url(#filter-8)"></path>
    </g>
</svg>