<?xml version="1.0" encoding="UTF-8"?>
<svg width="1201px" height="1800px" viewBox="0 0 1201 1800" version="1.1" xmlns="http://www.w3.org/2000/svg" xmlns:xlink="http://www.w3.org/1999/xlink">
    <!-- Generator: Sketch 54.1 (76490) - https://sketchapp.com -->
    <title>clyde_paddle_9c_RED_BANNER</title>
    <desc>Created with Sketch.</desc>
    <defs>
        <filter x="-1.9%" y="-1.4%" width="103.8%" height="102.7%" filterUnits="objectBoundingBox" id="filter-1">
            <feOffset dx="0" dy="2" in="SourceAlpha" result="shadowOffsetOuter1"></feOffset>
            <feGaussianBlur stdDeviation="2" in="shadowOffsetOuter1" result="shadowBlurOuter1"></feGaussianBlur>
            <feColorMatrix values="0 0 0 0 1   0 0 0 0 1   0 0 0 0 1  0 0 0 1 0" type="matrix" in="shadowBlurOuter1" result="shadowMatrixOuter1"></feColorMatrix>
            <feMerge>
                <feMergeNode in="shadowMatrixOuter1"></feMergeNode>
                <feMergeNode in="SourceGraphic"></feMergeNode>
            </feMerge>
        </filter>
    </defs>
    <g id="clyde_paddle_9c_RED_BANNER" stroke="none" stroke-width="1" fill="none" fill-rule="evenodd">
        <g id="BACKGROUND" fill="#FC0000" stroke="#979797">
            <rect id="Rectangle" x="0.5" y="0.5" width="1199.76503" height="1799" rx="41"></rect>
        </g>
        <g id="005-water-drop-5" filter="url(#filter-1)" transform="translate(155.000000, 52.000000)" fill="#FFFFFF" fill-rule="nonzero" stroke="#FFFFFF" stroke-width="9">
            <path d="M439.329787,1207.26383 C269.344681,1207.26383 151.712766,1166.99362 79.712766,1084.15532 C9.3787234,1003.23191 -13.9446809,886.059574 8.45957447,725.897872 C55.087234,392.438298 403.770213,24.3957447 418.57234,8.88510638 C423.914894,3.29361702 431.287234,0.0957446809 439.042553,0.0191489362 C446.778723,-0.229787234 454.22766,2.98723404 459.685106,8.46382979 C475.82766,24.6829787 856.048936,409.385106 893.23617,726.548936 C911.274468,880.353191 884.159574,999.134043 812.638298,1079.57872 C737.325532,1164.29362 611.72766,1207.26383 439.329787,1207.26383 Z M439.82766,70.793617 C364.457447,154.934043 103.151064,463.404255 65.3510638,733.86383 C45.3978723,876.561702 64.2595745,978.817021 123.046809,1046.41277 C183.5,1115.9617 286.942553,1149.77872 439.329787,1149.77872 C594.62766,1149.77872 705.768085,1113.3 769.706383,1041.3766 C829.853191,973.723404 852.219149,870.051064 836.17234,733.231915 C806.070213,476.444681 520.080851,156.178723 439.82766,70.793617 Z" id="path-1_19_"></path>
        </g>
        <g id="011-windsurf-1" transform="translate(365.000000, 290.000000)" fill="#FFFFFF">
            <polygon id="Path" stroke="#FFFFFF" points="18.9920574 879 479.496029 879 479.992057 918.566348 18.9920574 918.566348"></polygon>
            <path d="M129.813702,22.9334949 C-70.2100072,322.657023 -16.1833326,650.809376 138.488692,879 C138.488692,879 159.066657,879 200.222588,879 C219.249979,879 266.355701,880.174516 265.429654,879 C194.141405,788.58428 -37.8079943,472.57399 213.598374,81.4466788 C225.104867,63.5453676 231.669434,31.6862231 200.887316,10.1887387 C170.105199,-11.3087457 138.488692,8.59599988 129.813702,22.9334949 Z" id="Mast"></path>
            <path d="M175.005229,569 L481.66309,572.157749 C500.547697,574.693634 509.99,585.651991 509.99,605.032819 C509.99,624.413648 500.547697,635.591883 481.66309,638.567525 C298.124767,638.567525 202.163262,638.567525 193.778574,638.567525 C184.764051,615.114199 178.506269,591.925023 175.005229,569 Z" id="Path-2"></path>
            <path d="M205.706074,673.278735 C227.080762,736.143393 264.498002,804.717148 317.957794,879 C337.818971,879.522007 349.174978,879.522007 363.740082,879 C452.755735,734.151965 431.301731,768.935459 479.696158,692.295126 C493.796487,669.324164 489.490516,673.278735 422.075187,673.278735 C351.216214,673.278735 279.093177,673.278735 205.706074,673.278735 Z" id="Path-3"></path>
            <path d="M171.639622,536.786903 C258.006696,536.786903 340.522212,536.786903 419.18617,536.786903 C500.39539,536.786903 539.27844,530.214196 535.83532,517.068781 C535.83532,474.103129 419.18617,290.555601 301.190233,97.8775791 C290.371522,85.3758522 280.141444,85.3758522 270.5,97.8775791 C186.424714,228.413845 153.471255,374.716953 171.639622,536.786903 Z" id="Path-4"></path>
            <polygon id="Path-5" points="174.575228 569 112 569 112 639 201 639"></polygon>
        </g>
        <g id="TEXT" transform="translate(106.000000, 1293.000000)" fill="#FFFFFF" font-family="Helvetica" font-weight="normal">
            <text id="CLYDE" font-size="308">
                <tspan x="0" y="299">CLYDE</tspan>
            </text>
            <text id="Windsurf-&amp;-SUP" font-size="115">
                <tspan x="0" y="452">WINDSURF &amp; SUP</tspan>
            </text>
        </g>
    </g>
</svg>