<?xml version="1.0" encoding="UTF-8"?>
<svg width="925px" height="1482px" viewBox="0 0 925 1482" version="1.1" xmlns="http://www.w3.org/2000/svg" xmlns:xlink="http://www.w3.org/1999/xlink">
    <!-- Generator: Sketch 54.1 (76490) - https://sketchapp.com -->
    <title>clydelogoclyde</title>
    <desc>Created with Sketch.</desc>
    <defs>
        <filter x="-0.1%" y="-0.3%" width="100.1%" height="100.5%" filterUnits="objectBoundingBox" id="filter-1">
            <feGaussianBlur stdDeviation="0" in="SourceGraphic"></feGaussianBlur>
        </filter>
        <filter x="-0.1%" y="-1.3%" width="100.2%" height="102.5%" filterUnits="objectBoundingBox" id="filter-2">
            <feGaussianBlur stdDeviation="0" in="SourceGraphic"></feGaussianBlur>
        </filter>
        <filter x="-0.6%" y="-0.7%" width="101.4%" height="101.5%" filterUnits="objectBoundingBox" id="filter-3">
            <feGaussianBlur stdDeviation="0" in="SourceGraphic"></feGaussianBlur>
        </filter>
        <filter x="0.0%" y="-0.0%" width="100.0%" height="100.0%" filterUnits="objectBoundingBox" id="filter-4">
            <feGaussianBlur stdDeviation="0" in="SourceGraphic"></feGaussianBlur>
        </filter>
        <filter x="0.0%" y="0.0%" width="100.0%" height="100.0%" filterUnits="objectBoundingBox" id="filter-5">
            <feGaussianBlur stdDeviation="0" in="SourceGraphic"></feGaussianBlur>
        </filter>
        <filter x="0.0%" y="0.0%" width="100.0%" height="100.0%" filterUnits="objectBoundingBox" id="filter-6">
            <feGaussianBlur stdDeviation="0" in="SourceGraphic"></feGaussianBlur>
        </filter>
        <filter x="0.0%" y="0.0%" width="100.0%" height="100.0%" filterUnits="objectBoundingBox" id="filter-7">
            <feGaussianBlur stdDeviation="0" in="SourceGraphic"></feGaussianBlur>
        </filter>
        <filter x="0.0%" y="0.0%" width="100.0%" height="100.0%" filterUnits="objectBoundingBox" id="filter-8">
            <feGaussianBlur stdDeviation="0" in="SourceGraphic"></feGaussianBlur>
        </filter>
    </defs>
    <g id="clydelogoclyde" stroke="none" stroke-width="1" fill="none" fill-rule="evenodd">
        <g id="Text" transform="translate(14.000000, 35.000000)" fill="#000000" fill-rule="nonzero" stroke="#000000">
            <path d="M229.264,1386.394 C229.264,1398.978 200.466,1425.356 155.938,1425.356 C95.68,1425.356 63.252,1380.586 63.252,1333.396 C63.252,1284.27 97.858,1237.564 156.906,1237.564 C195.384,1237.564 221.52,1259.828 221.52,1272.896 C221.52,1281.124 214.502,1287.9 206.758,1287.9 C202.402,1287.9 198.046,1285.964 194.416,1281.366 C184.978,1269.75 169.732,1264.184 154.486,1264.184 C113.588,1264.184 91.808,1299.032 91.808,1331.702 C91.808,1352.03 103.666,1397.526 154.728,1397.526 C173.12,1397.526 191.27,1390.508 201.192,1377.198 C204.58,1372.6 208.694,1370.906 213.05,1370.906 C221.278,1370.906 229.264,1378.166 229.264,1386.394 Z M259.03,1254.02 C259.03,1244.582 265.806,1239.742 272.582,1239.742 C279.358,1239.742 286.376,1244.582 286.376,1254.504 L286.376,1255.472 C285.65,1270.96 284.924,1322.022 284.924,1355.66 C284.924,1369.454 285.166,1380.344 285.408,1384.458 C286.376,1396.074 291.7,1396.074 324.612,1396.074 C338.648,1396.074 354.136,1395.832 358.734,1395.59 L359.944,1395.59 C368.172,1395.59 373.012,1401.882 373.012,1408.416 C373.012,1414.95 368.172,1421.726 357.766,1422.21 C354.62,1422.452 340.342,1422.694 326.064,1422.694 C312.028,1422.694 297.75,1422.452 294.604,1422.21 C272.34,1420.516 259.03,1412.53 258.304,1391.234 C258.062,1386.152 258.062,1378.408 258.062,1369.454 C258.062,1336.3 259.03,1283.302 259.03,1259.344 L259.03,1254.02 Z M411.732,1408.9 L411.732,1350.82 C411.732,1346.464 411.732,1346.464 409.312,1342.834 C391.646,1316.214 367.204,1280.156 355.588,1262.732 C353.652,1259.828 352.684,1256.924 352.684,1254.262 C352.684,1246.034 360.428,1239.5 367.93,1239.5 C372.286,1239.5 376.642,1241.678 379.546,1246.76 C389.71,1264.426 406.65,1289.594 423.59,1314.762 C424.558,1316.214 425.526,1316.698 426.494,1316.698 C427.704,1316.698 428.672,1316.214 429.398,1315.004 C444.402,1294.434 463.52,1264.668 473.2,1246.518 C475.862,1241.678 479.734,1239.742 484.09,1239.742 C491.834,1239.742 500.304,1246.76 500.304,1254.746 C500.304,1257.166 499.578,1259.344 498.126,1261.764 C487.236,1279.188 460.132,1319.602 444.402,1341.624 C441.74,1345.496 441.498,1346.464 441.498,1351.062 C441.498,1365.582 441.74,1390.024 441.74,1409.626 C441.74,1418.58 434.238,1423.178 426.978,1423.178 C419.234,1423.178 411.732,1418.58 411.732,1408.9 Z M690.032,1331.218 C690.032,1425.356 610.172,1425.598 585.004,1425.598 C565.644,1425.598 531.28,1425.356 528.86,1391.476 C528.134,1379.618 527.65,1360.016 527.65,1339.688 C527.65,1313.068 528.376,1284.996 529.102,1271.928 C531.038,1238.774 554.996,1237.806 585.004,1237.806 C592.506,1237.806 599.766,1238.048 603.396,1238.29 C659.298,1241.92 690.032,1280.882 690.032,1331.218 Z M600.976,1264.184 C600.976,1264.184 590.57,1263.942 581.616,1263.942 C570,1263.942 556.932,1264.184 556.206,1276.284 C555.48,1286.448 554.754,1314.278 554.754,1340.414 C554.754,1359.532 555.238,1377.44 556.206,1386.636 C557.416,1397.768 564.918,1399.704 585.004,1399.704 C610.414,1399.704 661.476,1399.704 661.476,1331.218 C661.476,1292.256 638.002,1264.184 600.976,1264.184 Z M819.502,1264.184 C819.502,1264.184 797.964,1263.942 781.508,1263.942 C757.308,1263.942 752.226,1264.426 751.5,1274.832 C751.016,1280.64 751.258,1292.498 751.016,1306.534 C751.016,1311.374 751.258,1311.374 781.024,1311.374 C792.156,1311.374 803.772,1311.374 808.128,1311.132 C821.68,1310.406 821.68,1323.232 821.68,1323.958 C821.68,1330.976 817.324,1337.752 808.854,1337.752 C808.612,1337.752 808.128,1337.752 807.644,1337.752 C801.594,1337.268 792.398,1337.026 783.202,1337.026 C753.194,1337.026 750.774,1337.268 750.774,1342.35 C750.774,1378.408 751.016,1383.974 751.5,1388.088 C752.71,1399.22 756.582,1399.704 790.704,1399.704 C804.982,1399.704 820.47,1399.462 825.068,1399.22 C825.552,1399.22 825.794,1399.22 826.278,1399.22 C834.748,1399.22 839.346,1405.27 839.346,1411.562 C839.346,1418.096 834.506,1424.63 824.1,1425.114 C820.954,1425.356 806.918,1425.598 792.882,1425.598 C779.088,1425.598 765.052,1425.356 761.906,1425.114 C739.642,1423.42 725.848,1415.434 724.88,1394.138 C724.396,1383.974 724.396,1366.066 724.396,1346.464 C724.396,1316.94 724.638,1284.028 725.122,1268.782 C725.606,1249.422 738.19,1239.258 757.792,1238.29 C762.148,1238.048 775.942,1237.806 789.494,1237.806 C803.288,1237.806 816.598,1238.048 820.228,1238.29 C829.424,1238.774 833.78,1244.824 833.78,1251.116 C833.78,1257.65 828.698,1264.184 819.502,1264.184 Z" id="CLYDE" filter="url(#filter-1)"></path>
        </g>
        <g id="011-windsurf-1" transform="translate(227.000000, 273.000000)" fill="#000000">
            <polygon id="Path" stroke="#000000" filter="url(#filter-2)" points="18.9920574 879 479.496029 879 479.992057 918.566348 18.9920574 918.566348"></polygon>
            <polygon id="Path-5" stroke="#000000" filter="url(#filter-3)" points="175.005229 569.567525 112.264239 569.567525 112.264239 638.067525 201.5 638.067525"></polygon>
            <path d="M139.813702,22.9334949 C-60.210007,322.657023 -6.18333239,650.809376 148.488692,879 C148.488692,879 169.066658,879 210.222588,879 C229.249979,879 276.355701,880.174516 275.429654,879 C204.141406,788.58428 -27.807994,472.57399 223.598374,81.4466788 C235.104867,63.5453676 241.669434,31.6862231 210.887317,10.1887387 C180.105199,-11.3087457 148.488692,8.59599988 139.813702,22.9334949 Z" id="Mast" filter="url(#filter-4)"></path>
            <path d="M175.005229,569 L481.66309,572.157749 C500.547697,574.693634 509.99,585.651991 509.99,605.032819 C509.99,624.413648 500.547697,635.591883 481.66309,638.567525 C298.124767,638.567525 202.163262,638.567525 193.778574,638.567525 C184.764051,615.114199 178.506269,591.925023 175.005229,569 Z" id="Path-2" filter="url(#filter-5)"></path>
            <path d="M205.706074,673.278735 C232.790854,736.143393 273.06314,804.717148 326.522932,879 C346.384109,879.522007 349.174978,879.522007 363.740082,879 C452.755735,734.151965 431.301731,768.935459 479.696158,692.295126 C493.796487,669.324164 489.490516,673.278735 422.075187,673.278735 C351.216214,673.278735 279.093177,673.278735 205.706074,673.278735 Z" id="Path-3" filter="url(#filter-6)"></path>
            <path d="M171.639622,536.786903 C301.190233,536.786903 171.639622,536.786903 419.18617,536.786903 C526.580756,536.786903 526.580756,541.504191 529.035324,525.927017 C487.618618,422.204951 368.79366,195.727623 301.190233,97.8775791 C290.371522,85.3758522 280.141444,85.3758522 270.5,97.8775791 C186.424714,228.413845 153.471255,374.716953 171.639622,536.786903 Z" id="Path-4" filter="url(#filter-7)"></path>
        </g>
        <path d="M463,23 C467.440283,23 475.10915,24.041286 484.493506,31.078376 C581.780856,104.031685 917.175948,533.18539 919,863.387416 C917,1007.25284 835.822475,1238 463,1238 C79.676964,1238 8,1011.86899 8,863.387416 C8,533.942278 344.877528,104.189456 442.45516,31.1024427 C451.8708,24.0499962 458.558304,23 463,23 Z M463.126072,137.273642 C421.781104,137.273642 90,547.564496 90,855.162393 C90,981.597192 148.714696,1174.15192 462.716493,1174.15192 C768.116681,1174.15192 834.613829,977.666459 836.252143,855.162393 C834.613829,546.867262 504.471039,137.273642 463.126072,137.273642 Z" id="Paddle-New" fill="#000000" filter="url(#filter-8)"></path>
    </g>
</svg>